<svg xmlns="http://www.w3.org/2000/svg" viewBox="0 0 390.6 68.38"><defs><style>.cls-1{fill:#0b318f;}.cls-2{fill:#f5ac16;}</style></defs><title>アセット 4</title><g id="レイヤー_2" data-name="レイヤー 2"><g id="レイヤー_1-2" data-name="レイヤー 1"><path class="cls-1" d="M124.2,23.75H108.72V19.14c0-2.15-.2-3.52-.59-4.11a2.24,2.24,0,0,0-2-.88,2.54,2.54,0,0,0-2.28,1.19A6.8,6.8,0,0,0,103.1,19a10,10,0,0,0,.87,4.69c.55,1.05,2.12,2.31,4.71,3.8q11.13,6.4,14,10.51t2.89,13.24q0,6.64-1.61,9.79c-1.06,2.09-3.13,3.85-6.19,5.27a25.18,25.18,0,0,1-10.69,2.13,24.67,24.67,0,0,1-11.43-2.45q-4.73-2.46-6.19-6.26T88,48.89V44.82h15.48v7.56c0,2.33.22,3.82.66,4.49a2.56,2.56,0,0,0,2.31,1,2.75,2.75,0,0,0,2.48-1.27,7,7,0,0,0,.81-3.76q0-5.49-1.54-7.18T100.41,40a77.08,77.08,0,0,1-8.24-5.79,13.62,13.62,0,0,1-3.35-5A21.39,21.39,0,0,1,87.5,21.1q0-7.14,1.88-10.44A12.51,12.51,0,0,1,95.46,5.5a24.87,24.87,0,0,1,10.13-1.86,27.09,27.09,0,0,1,11.07,2c3,1.36,5.07,3.06,6.06,5.12s1.48,5.56,1.48,10.5Z"/><path class="cls-1" d="M127.25,4.94H144a40.58,40.58,0,0,1,10.47,1A11.84,11.84,0,0,1,160,9a10.2,10.2,0,0,1,2.5,4.74,41.68,41.68,0,0,1,.65,8.62v5.41c0,4-.42,6.86-1.27,8.67a8.56,8.56,0,0,1-4.65,4.19,22.71,22.71,0,0,1-8.85,1.45h-4.47v25H127.25Zm16.67,10.63V31.38c.47,0,.88,0,1.22,0a3.92,3.92,0,0,0,3.19-1.09c.6-.73.89-2.25.89-4.55v-5.1c0-2.13-.34-3.51-1-4.15S146.08,15.57,143.92,15.57Z"/><path class="cls-1" d="M182.67,4.94v49.7h10.14V67.08H166V4.94Z"/><path class="cls-1" d="M227,4.94l9.54,62.14h-17l-.9-11.17h-6l-1,11.17H194.37l8.5-62.14Zm-8.83,40q-1.27-10.56-2.54-26.1-2.55,17.84-3.2,26.1Z"/><path class="cls-1" d="M267.71,4.94V17.38h-9.9v49.7H241.14V17.38h-9.85V4.94Z"/><path class="cls-1" d="M309.52,4.94V67.08H292.85V41h-5v26.1H271.19V4.94h16.67V27.16h5V4.94Z"/><path class="cls-1" d="M350.73,41.32q0,9.38-.45,13.27a14.76,14.76,0,0,1-2.85,7.12A15.3,15.3,0,0,1,341,66.66a24.22,24.22,0,0,1-9.5,1.72,24.83,24.83,0,0,1-9.25-1.63,15.11,15.11,0,0,1-6.59-4.89,14.53,14.53,0,0,1-3-7.1,126.83,126.83,0,0,1-.47-13.44V30.69q0-9.36.45-13.26a14.66,14.66,0,0,1,2.85-7.12A15.3,15.3,0,0,1,322,5.36a24.22,24.22,0,0,1,9.5-1.72,24.74,24.74,0,0,1,9.24,1.63,15.15,15.15,0,0,1,6.6,4.89,14.53,14.53,0,0,1,3,7.1,129.58,129.58,0,0,1,.47,13.43ZM334.06,20.91a18.81,18.81,0,0,0-.49-5.55,2,2,0,0,0-2-1.21,2.31,2.31,0,0,0-2,1q-.69,1-.69,5.78v29q0,5.41.45,6.68a2,2,0,0,0,2.12,1.27,2.06,2.06,0,0,0,2.18-1.46,30.36,30.36,0,0,0,.47-6.95Z"/><path class="cls-1" d="M390.6,4.94V67.08H376l-8.67-28.25V67.08H353.38V4.94h13.94l9.34,28v-28Z"/><path class="cls-1" d="M69.49,38.2C64.28,29,50.42,23.86,48.75,23.27L61.87,0H39.23L2.79,67.08H24.05l12.12-21.5a18.17,18.17,0,0,1,9.9,6.57c4.79,6.07,2.5,14.93,2.5,14.93H75S75.63,49.1,69.49,38.2Z"/><path class="cls-2" d="M.29,14.92c-2.24,3.87,9.3,25.8,9.3,25.8L26.74,9.87S2.64,10.86.29,14.92Z"/></g></g></svg>